<svg width="40" height="40" viewBox="0 0 40 40" fill="none" xmlns="http://www.w3.org/2000/svg">
<g clip-path="url(#clip0_585_4186)">
<path d="M33.3332 18.3332C32.9256 15.4002 31.565 12.6826 29.4609 10.599C27.3569 8.51539 24.6261 7.18137 21.6893 6.80242C18.7525 6.42348 15.7725 7.02064 13.2085 8.50191C10.6445 9.98319 8.63859 12.2664 7.49984 14.9998M6.6665 8.33317V14.9998H13.3332" stroke="black" stroke-width="2" stroke-linecap="round" stroke-linejoin="round"/>
<path d="M6.6665 21.666C7.0741 24.599 8.43472 27.3166 10.5388 29.4002C12.6428 31.4838 15.3736 32.8178 18.3104 33.1968C21.2472 33.5757 24.2271 32.9785 26.7912 31.4973C29.3552 30.016 31.3611 27.7328 32.4998 24.9993M33.3332 31.666V24.9993H26.6665" stroke="black" stroke-width="2" stroke-linecap="round" stroke-linejoin="round"/>
</g>
<defs>
<clipPath id="clip0_585_4186">
<rect width="40" height="40" fill="white"/>
</clipPath>
</defs>
</svg>
